<svg width="145" height="137" fill="none" xmlns="http://www.w3.org/2000/svg"><g clip-path="url(#a)"><path d="m.465 65.859 41.342 69.124a3.258 3.258 0 0 0 3.507 1.519l5.468-1.202L78.8 116.908l21.237 8.989a3.281 3.281 0 0 0 1.989.18l5.192-1.16-95.015-70.326-10.688 6.821C.023 62.38-.446 64.34.464 65.86Z" fill="url(#b)"/><path d="M45.81 132.953 5.2 64.133c-1.228-2.1-.58-4.792 1.478-6.076L98.476.684c2.14-1.34 4.971-.65 6.241 1.532l39.672 67.868a4.48 4.48 0 0 1-1.478 6.048l-28.887 18.2a4.493 4.493 0 0 0-2.085 3.548l-1.243 22.88c-.165 3.149-3.466 5.151-6.338 3.839l-19.732-9.017a4.504 4.504 0 0 0-4.322.332L52.12 134.417a4.452 4.452 0 0 1-6.31-1.464Z" fill="url(#c)"/></g><defs><linearGradient id="b" x1="0" y1="95.591" x2="107.227" y2="95.591" gradientUnits="userSpaceOnUse"><stop stop-color="#A6EBFA"/><stop offset=".769" stop-color="#7AE0F7"/><stop offset=".977" stop-color="#21CCF2"/></linearGradient><linearGradient id="c" x1="4.572" y1="67.582" x2="145.006" y2="67.582" gradientUnits="userSpaceOnUse"><stop stop-color="#4DD6F5"/><stop offset="1" stop-color="#1999B5"/></linearGradient><clipPath id="a"><path fill="#fff" d="M0 0h145v137H0z"/></clipPath></defs></svg>