<svg xmlns="http://www.w3.org/2000/svg" width="1440" height="560" preserveAspectRatio="none"><g mask="url(&quot;#a&quot;)" fill="none"><path fill="#0e2a47" d="M0 0h1440v560H0z"/><g stroke-linecap="round" stroke-width="15"><path d="M260 123.43v313.14" stroke="#d13"/><path d="M280 202.82v154.36" stroke="#3a7cc3"/><path d="M300 225.33v109.34" stroke="#d13"/><path d="M320 200.87v158.26" stroke="#3a7cc3"/><path d="M340 216.39v127.22" stroke="#d13"/><path d="M360 141.47v277.06" stroke="#3a7cc3"/><path d="M380 238.17v83.66m20-176.1v268.54" stroke="#d13"/><path d="M420 177.49v205.02" stroke="#3a7cc3"/><path d="M440 105.79v348.42" stroke="#d13"/><path d="M460 118.58v322.84" stroke="#3a7cc3"/><path d="M480 149.69v260.62" stroke="#d13"/><path d="M500 197.14v165.72" stroke="#3a7cc3"/><path d="M520 247.15v65.71m20-169.44v273.16m20-164.65v56.14" stroke="#d13"/><path d="M580 146.7v266.6m20-173.85v81.1" stroke="#3a7cc3"/><path d="M620 217.13v125.74m20-233.72v341.71" stroke="#d13"/><path d="M660 171.86v216.28" stroke="#3a7cc3"/><path d="M680 114.26v331.48m20-259.79v188.1" stroke="#d13"/><path d="M720 180.03v199.94" stroke="#3a7cc3"/><path d="M740 121.45v317.1m20-323.86v330.62" stroke="#d13"/><path d="M780 124.31v311.38m20-256.14v200.9m20-193.09v185.28m20-199.36v213.44" stroke="#3a7cc3"/><path d="M860 187.33v185.34" stroke="#d13"/><path d="M880 215.3v129.4" stroke="#3a7cc3"/><path d="M900 133.88v292.24" stroke="#d13"/><path d="M920 121.5v317" stroke="#3a7cc3"/><path d="M940 245.44v69.12" stroke="#d13"/><path d="M960 135.91v288.18" stroke="#3a7cc3"/><path d="M980 113.7v332.6m20-308.24v283.88m20-316.28v348.69m20-287.26V392.9" stroke="#d13"/><path d="M1060 140.16v279.68m20-170.56v61.44" stroke="#3a7cc3"/><path d="M1100 192.75v174.5m20-256.59v338.68" stroke="#d13"/><path d="M1140 124.87v310.26m20-225.31v140.36" stroke="#3a7cc3"/><path d="M1180 141.73v276.54" stroke="#d13"/></g></g><defs><mask id="a"><path fill="#fff" d="M0 0h1440v560H0z"/></mask></defs></svg>