<svg xmlns="http://www.w3.org/2000/svg" version="1.1" xmlns:xlink="http://www.w3.org/1999/xlink" xmlns:svgjs="http://svgjs.com/svgjs" width="1440" height="560" preserveAspectRatio="none" viewBox="0 0 1440 560"><g mask="url(&quot;#SvgjsMask1000&quot;)" fill="none"><rect width="1440" height="560" x="0" y="0" fill="#0e2a47"></rect><g transform="translate(0, 0)" stroke-linecap="round"><path d="M260 123.43 L260 436.57" stroke-width="15" stroke="#dd1133"></path><path d="M280 202.82 L280 357.18" stroke-width="15" stroke="#3a7cc3"></path><path d="M300 225.33 L300 334.67" stroke-width="15" stroke="#dd1133"></path><path d="M320 200.87 L320 359.13" stroke-width="15" stroke="#3a7cc3"></path><path d="M340 216.39 L340 343.61" stroke-width="15" stroke="#dd1133"></path><path d="M360 141.47 L360 418.53" stroke-width="15" stroke="#3a7cc3"></path><path d="M380 238.17 L380 321.83" stroke-width="15" stroke="#dd1133"></path><path d="M400 145.73 L400 414.27" stroke-width="15" stroke="#dd1133"></path><path d="M420 177.49 L420 382.51" stroke-width="15" stroke="#3a7cc3"></path><path d="M440 105.79 L440 454.21" stroke-width="15" stroke="#dd1133"></path><path d="M460 118.58 L460 441.42" stroke-width="15" stroke="#3a7cc3"></path><path d="M480 149.69 L480 410.31" stroke-width="15" stroke="#dd1133"></path><path d="M500 197.14 L500 362.86" stroke-width="15" stroke="#3a7cc3"></path><path d="M520 247.15 L520 312.86" stroke-width="15" stroke="#dd1133"></path><path d="M540 143.42 L540 416.58" stroke-width="15" stroke="#dd1133"></path><path d="M560 251.93 L560 308.07" stroke-width="15" stroke="#dd1133"></path><path d="M580 146.7 L580 413.3" stroke-width="15" stroke="#3a7cc3"></path><path d="M600 239.45 L600 320.55" stroke-width="15" stroke="#3a7cc3"></path><path d="M620 217.13 L620 342.87" stroke-width="15" stroke="#dd1133"></path><path d="M640 109.15 L640 450.86" stroke-width="15" stroke="#dd1133"></path><path d="M660 171.86 L660 388.14" stroke-width="15" stroke="#3a7cc3"></path><path d="M680 114.26 L680 445.74" stroke-width="15" stroke="#dd1133"></path><path d="M700 185.95 L700 374.05" stroke-width="15" stroke="#dd1133"></path><path d="M720 180.03 L720 379.97" stroke-width="15" stroke="#3a7cc3"></path><path d="M740 121.45 L740 438.55" stroke-width="15" stroke="#dd1133"></path><path d="M760 114.69 L760 445.31" stroke-width="15" stroke="#dd1133"></path><path d="M780 124.31 L780 435.69" stroke-width="15" stroke="#3a7cc3"></path><path d="M800 179.55 L800 380.45" stroke-width="15" stroke="#3a7cc3"></path><path d="M820 187.36 L820 372.64" stroke-width="15" stroke="#3a7cc3"></path><path d="M840 173.28 L840 386.72" stroke-width="15" stroke="#3a7cc3"></path><path d="M860 187.33 L860 372.67" stroke-width="15" stroke="#dd1133"></path><path d="M880 215.3 L880 344.7" stroke-width="15" stroke="#3a7cc3"></path><path d="M900 133.88 L900 426.12" stroke-width="15" stroke="#dd1133"></path><path d="M920 121.5 L920 438.5" stroke-width="15" stroke="#3a7cc3"></path><path d="M940 245.44 L940 314.56" stroke-width="15" stroke="#dd1133"></path><path d="M960 135.91 L960 424.09" stroke-width="15" stroke="#3a7cc3"></path><path d="M980 113.7 L980 446.3" stroke-width="15" stroke="#dd1133"></path><path d="M1000 138.06 L1000 421.94" stroke-width="15" stroke="#dd1133"></path><path d="M1020 105.66 L1020 454.35" stroke-width="15" stroke="#dd1133"></path><path d="M1040 167.09 L1040 392.9" stroke-width="15" stroke="#dd1133"></path><path d="M1060 140.16 L1060 419.84" stroke-width="15" stroke="#3a7cc3"></path><path d="M1080 249.28 L1080 310.72" stroke-width="15" stroke="#3a7cc3"></path><path d="M1100 192.75 L1100 367.25" stroke-width="15" stroke="#dd1133"></path><path d="M1120 110.66 L1120 449.34" stroke-width="15" stroke="#dd1133"></path><path d="M1140 124.87 L1140 435.13" stroke-width="15" stroke="#3a7cc3"></path><path d="M1160 209.82 L1160 350.18" stroke-width="15" stroke="#3a7cc3"></path><path d="M1180 141.73 L1180 418.27" stroke-width="15" stroke="#dd1133"></path></g></g><defs><mask id="SvgjsMask1000"><rect width="1440" height="560" fill="#ffffff"></rect></mask></defs></svg>